# xmcd
#
# Track frame offsets:
#	150
#	12415
#	26502
#	39705
#	54819
#	68942
#	84374
#	97761
#	112679
#	128340
#	140210
#	152204
#	163933
#	179567
#	190855
#	203542
#	216687
#	229965
#	242776
#	255728
#	270634
#	282935
#	297877
#	311038
#	325273
#
# Disc length: 4522 seconds
#
# Revision: 1
# Processed by: cddbd v1.5.1PL0 Copyright (c) Steve Scherf et al.
# Submitted via: audiograbber 1.83.01
#
DISCID=6c11a819
DTITLE=Various Artist - The Paramount Masters - CD 2/4
DYEAR=1900
DGENRE=Blues
TTITLE0=Charley Patton - I Shall Not Be Moved (alt. take)
TTITLE1=Raymond Barrow - Walking Blues
TTITLE2=Blind Roosevelt Graves - Guitar Boogie
TTITLE3=Alice Moore - Black and Evil Blues
TTITLE4=Ben Curry - The New Dirty Dozen
TTITLE5=Freddie Spruell - Low-Down Mississippi Bottom Man
TTITLE6=Little Brother Montgomery - Vicksburg Blues
TTITLE7=Henry Townsend - Jack of Diamonds Georgia Rub
TTITLE8=John Byrd - Billy Goat Blues
TTITLE9=Side Wheel Sally Duffie - Bunker Hill Blues
TTITLE10=Buddy Boy Hawkins - Number Three Blues
TTITLE11=Ed Bell - Mamlish Blues
TTITLE12=Henry Brown - Eastern Chimes Blues
TTITLE13=Charlie Spand - Fetch Your Water
TTITLE14=J.D. Short - Lonesome Swamp Rattlesnake
TTITLE15=Alice Pearson - Water Bound Blues
TTITLE16=Lonnie Clark - Broke Down Engine
TTITLE17=Barrel House Welch - Dying Pickpocket Blues
TTITLE18=Edward Thompson - Seven Sister Blues
TTITLE19=John Byrd - Old Timbrook Blues
TTITLE20=Bob Robinson - The Preacher Must Get Some, Sometime
TTITLE21=Elvie Thomas - Motherless Child Blues
TTITLE22=Jack O'Diamonds - The Duck's Yas Yas
TTITLE23=Ben Curry - Boodle De Bum Bum
TTITLE24=James Wiggins - Gotta Shave 'em Dry
EXTD=JSP7723B
EXTT0=
EXTT1=
EXTT2=
EXTT3=
EXTT4=
EXTT5=
EXTT6=
EXTT7=
EXTT8=
EXTT9=
EXTT10=
EXTT11=
EXTT12=
EXTT13=
EXTT14=
EXTT15=
EXTT16=
EXTT17=
EXTT18=
EXTT19=
EXTT20=
EXTT21=
EXTT22=
EXTT23=
EXTT24=
PLAYORDER=
